<svg xmlns="http://www.w3.org/2000/svg" viewBox="0 0 743.59 326.42"><defs><style>.cls-1{fill:#fff;stroke:#fff;stroke-miterlimit:10;stroke-width:6.23px;}.cls-2{opacity:0.2;}.cls-3{opacity:0.6;}</style></defs><title>logo</title><g id="Layer_2" data-name="Layer 2"><g id="Layer_1-2" data-name="Layer 1"><path class="cls-1" d="M3.11,323.31V199H6.62v80.68l79.29-80.86H91L37.85,253.15l55.6,70.16H88.89L35.21,255.6,6.62,284.54v38.77Z"/><path class="cls-1" d="M98.71,323.31l54.37-124.54h3.16l54.2,124.54h-3.86l-19.47-44.55H122l-19.47,44.55Zm56-119.45-31.22,71.39h62.09Z"/><path class="cls-1" d="M349,323.31V206.49l-55.25,92.26H291L235.7,206.49V323.31h-3.51V198.77H235l57.36,95.77,57.35-95.77h2.81V323.31Z"/><path class="cls-1" d="M504.77,323.31V206.49l-55.25,92.26h-2.81l-55.25-92.26V323.31H388V198.77h2.8l57.36,95.77,57.36-95.77h2.81V323.31Z"/><path class="cls-1" d="M625.44,319.8v3.51H543.71V198.77h80.16v3.51H547.21v55.6h67.18v3.51H547.21V319.8Z"/><path class="cls-1" d="M652.28,323.31V198.77H703A30.82,30.82,0,0,1,717,202a35.82,35.82,0,0,1,11.14,8.59,40.93,40.93,0,0,1,7.28,12.1,37.78,37.78,0,0,1,2.63,13.77,42.5,42.5,0,0,1-2.28,13.86,38,38,0,0,1-6.49,11.84,34.24,34.24,0,0,1-10.08,8.42,31.08,31.08,0,0,1-12.9,3.77l31.58,48.94h-4.21l-31.58-48.94h-46.3v48.94Zm3.51-52.45H704.2a26.52,26.52,0,0,0,12.63-3,31.12,31.12,0,0,0,9.56-7.8,35.11,35.11,0,0,0,6.05-11,38.74,38.74,0,0,0,2.1-12.63,34.28,34.28,0,0,0-2.45-12.8,36.07,36.07,0,0,0-6.75-10.88,34.26,34.26,0,0,0-10.09-7.63A27.08,27.08,0,0,0,703,202.28H655.79Z"/><path class="cls-1" d="M101,145.34v4.09H5.65V4.14H99.17V8.22H9.74V73.1H88.12v4.09H9.74v68.15Z"/><path class="cls-1" d="M195.06,149.43V4.14h4.09V98.48l92.5-94.34h5.93l-62,63.43,64.87,81.86h-5.32l-62.62-79L199.15,104.2v45.23Z"/><path class="cls-1" d="M399.9,149.43V4.14H404V98.48L496.5,4.14h5.92l-62,63.43,64.86,81.86H500l-62.63-79L404,104.2v45.23Z"/><path class="cls-1" d="M668.88,150.45a59.44,59.44,0,0,1-27.52-6.34A71.79,71.79,0,0,1,620,127.53,74.12,74.12,0,0,1,606.05,104a78.3,78.3,0,0,1-4.91-27.22A75.9,75.9,0,0,1,606.35,49a78.13,78.13,0,0,1,14.34-23.53A68.92,68.92,0,0,1,642.18,9.15a60.18,60.18,0,0,1,26.7-6,58.9,58.9,0,0,1,27.43,6.45A70.26,70.26,0,0,1,717.7,26.44a78.26,78.26,0,0,1,13.8,23.64,76.87,76.87,0,0,1-14.63,78.16,69.9,69.9,0,0,1-21.39,16.18A59.53,59.53,0,0,1,668.88,150.45ZM605.24,76.78a72.58,72.58,0,0,0,4.8,26.09,74.42,74.42,0,0,0,13.22,22.31,62.62,62.62,0,0,0,20,15.45,57.22,57.22,0,0,0,25.58,5.73,55.81,55.81,0,0,0,25.89-6,64.31,64.31,0,0,0,20.06-15.86,74,74,0,0,0,12.89-22.3A73.22,73.22,0,0,0,714.1,28.39a65.32,65.32,0,0,0-20.16-15.45,58,58,0,0,0-50.94.3A65.6,65.6,0,0,0,622.83,29.1a74.53,74.53,0,0,0-17.59,47.68Z"/><g class="cls-2"><path class="cls-1" d="M335.44,3.11h6L278.58,67.44l65.78,83H339l-63.51-80.1-2.76-3.26Z"/></g><g class="cls-3"><path class="cls-1" d="M313.34,3.11h6L256.47,67.44l65.79,83h-5.4l-63.5-80.1-2.76-3.26Z"/></g><g class="cls-2"><path class="cls-1" d="M540.59,3.11h6L483.74,67.44l65.77,83h-5.39l-63.49-80.1-2.77-3.26Z"/></g><g class="cls-3"><path class="cls-1" d="M518.48,3.11h6L461.63,67.44l65.79,83H522l-63.51-80.1-2.75-3.26Z"/></g></g></g></svg>